<mxfile host="app.diagrams.net" agent="Mozilla/5.0 (Macintosh; Intel Mac OS X 10_15_7) AppleWebKit/537.36 (KHTML, like Gecko) Chrome/141.0.0.0 Safari/537.36" version="28.2.6">
  <diagram name="Page-1" id="N0uWxi-yVRwY5eGpI3Vx">
    <mxGraphModel dx="1234" dy="824" grid="1" gridSize="10" guides="1" tooltips="1" connect="1" arrows="1" fold="1" page="1" pageScale="1" pageWidth="850" pageHeight="1100" math="0" shadow="0">
      <root>
        <mxCell id="0" />
        <mxCell id="1" parent="0" />
        <mxCell id="R0a2hVuBhGwqCR04QA9x-2" value="AWS Account" style="points=[[0,0],[0.25,0],[0.5,0],[0.75,0],[1,0],[1,0.25],[1,0.5],[1,0.75],[1,1],[0.75,1],[0.5,1],[0.25,1],[0,1],[0,0.75],[0,0.5],[0,0.25]];outlineConnect=0;gradientColor=none;html=1;whiteSpace=wrap;fontSize=12;fontStyle=0;container=1;pointerEvents=0;collapsible=0;recursiveResize=0;shape=mxgraph.aws4.group;grIcon=mxgraph.aws4.group_account;strokeColor=#CD2264;fillColor=none;verticalAlign=top;align=left;spacingLeft=30;fontColor=#CD2264;dashed=0;" parent="1" vertex="1">
          <mxGeometry x="930" y="330" width="640" height="560" as="geometry" />
        </mxCell>
        <mxCell id="R0a2hVuBhGwqCR04QA9x-3" value="Region" style="points=[[0,0],[0.25,0],[0.5,0],[0.75,0],[1,0],[1,0.25],[1,0.5],[1,0.75],[1,1],[0.75,1],[0.5,1],[0.25,1],[0,1],[0,0.75],[0,0.5],[0,0.25]];outlineConnect=0;gradientColor=none;html=1;whiteSpace=wrap;fontSize=12;fontStyle=0;container=1;pointerEvents=0;collapsible=0;recursiveResize=0;shape=mxgraph.aws4.group;grIcon=mxgraph.aws4.group_region;strokeColor=#00A4A6;fillColor=none;verticalAlign=top;align=left;spacingLeft=30;fontColor=#147EBA;dashed=1;" parent="R0a2hVuBhGwqCR04QA9x-2" vertex="1">
          <mxGeometry x="20" y="140" width="620" height="420" as="geometry" />
        </mxCell>
        <mxCell id="R0a2hVuBhGwqCR04QA9x-4" value="Availability Zone" style="fillColor=none;strokeColor=#147EBA;dashed=1;verticalAlign=top;fontStyle=0;fontColor=#147EBA;whiteSpace=wrap;html=1;" parent="R0a2hVuBhGwqCR04QA9x-3" vertex="1">
          <mxGeometry x="55" y="60" width="220" height="360" as="geometry" />
        </mxCell>
        <mxCell id="R0a2hVuBhGwqCR04QA9x-5" value="Availability Zone" style="fillColor=none;strokeColor=#147EBA;dashed=1;verticalAlign=top;fontStyle=0;fontColor=#147EBA;whiteSpace=wrap;html=1;" parent="R0a2hVuBhGwqCR04QA9x-3" vertex="1">
          <mxGeometry x="365" y="60" width="220" height="360" as="geometry" />
        </mxCell>
        <mxCell id="R0a2hVuBhGwqCR04QA9x-6" value="Private subnet" style="points=[[0,0],[0.25,0],[0.5,0],[0.75,0],[1,0],[1,0.25],[1,0.5],[1,0.75],[1,1],[0.75,1],[0.5,1],[0.25,1],[0,1],[0,0.75],[0,0.5],[0,0.25]];outlineConnect=0;gradientColor=none;html=1;whiteSpace=wrap;fontSize=12;fontStyle=0;container=1;pointerEvents=0;collapsible=0;recursiveResize=0;shape=mxgraph.aws4.group;grIcon=mxgraph.aws4.group_security_group;grStroke=0;strokeColor=#00A4A6;fillColor=#E6F6F7;verticalAlign=top;align=left;spacingLeft=30;fontColor=#147EBA;dashed=0;" parent="R0a2hVuBhGwqCR04QA9x-3" vertex="1">
          <mxGeometry x="55" y="210" width="220" height="210" as="geometry" />
        </mxCell>
        <mxCell id="R0a2hVuBhGwqCR04QA9x-7" value="Private subnet" style="points=[[0,0],[0.25,0],[0.5,0],[0.75,0],[1,0],[1,0.25],[1,0.5],[1,0.75],[1,1],[0.75,1],[0.5,1],[0.25,1],[0,1],[0,0.75],[0,0.5],[0,0.25]];outlineConnect=0;gradientColor=none;html=1;whiteSpace=wrap;fontSize=12;fontStyle=0;container=1;pointerEvents=0;collapsible=0;recursiveResize=0;shape=mxgraph.aws4.group;grIcon=mxgraph.aws4.group_security_group;grStroke=0;strokeColor=#00A4A6;fillColor=#E6F6F7;verticalAlign=top;align=left;spacingLeft=30;fontColor=#147EBA;dashed=0;" parent="R0a2hVuBhGwqCR04QA9x-3" vertex="1">
          <mxGeometry x="365" y="210" width="220" height="210" as="geometry" />
        </mxCell>
        <mxCell id="R0a2hVuBhGwqCR04QA9x-8" value="Public subnet" style="points=[[0,0],[0.25,0],[0.5,0],[0.75,0],[1,0],[1,0.25],[1,0.5],[1,0.75],[1,1],[0.75,1],[0.5,1],[0.25,1],[0,1],[0,0.75],[0,0.5],[0,0.25]];outlineConnect=0;gradientColor=none;html=1;whiteSpace=wrap;fontSize=12;fontStyle=0;container=1;pointerEvents=0;collapsible=0;recursiveResize=0;shape=mxgraph.aws4.group;grIcon=mxgraph.aws4.group_security_group;grStroke=0;strokeColor=#7AA116;fillColor=#F2F6E8;verticalAlign=top;align=left;spacingLeft=30;fontColor=#248814;dashed=0;" parent="R0a2hVuBhGwqCR04QA9x-3" vertex="1">
          <mxGeometry x="365" y="100" width="220" height="90" as="geometry" />
        </mxCell>
        <mxCell id="R0a2hVuBhGwqCR04QA9x-9" value="&lt;font style=&quot;font-size: 10px;&quot;&gt;Internet GW&lt;/font&gt;" style="text;html=1;align=center;verticalAlign=middle;whiteSpace=wrap;rounded=0;fontColor=light-dark(#8C4FFF,#B17DFF);" parent="R0a2hVuBhGwqCR04QA9x-3" vertex="1">
          <mxGeometry x="342" y="-11" width="59" height="60" as="geometry" />
        </mxCell>
        <mxCell id="R0a2hVuBhGwqCR04QA9x-21" value="Public subnet" style="points=[[0,0],[0.25,0],[0.5,0],[0.75,0],[1,0],[1,0.25],[1,0.5],[1,0.75],[1,1],[0.75,1],[0.5,1],[0.25,1],[0,1],[0,0.75],[0,0.5],[0,0.25]];outlineConnect=0;gradientColor=none;html=1;whiteSpace=wrap;fontSize=12;fontStyle=0;container=1;pointerEvents=0;collapsible=0;recursiveResize=0;shape=mxgraph.aws4.group;grIcon=mxgraph.aws4.group_security_group;grStroke=0;strokeColor=#7AA116;fillColor=#F2F6E8;verticalAlign=top;align=left;spacingLeft=30;fontColor=#248814;dashed=0;" parent="R0a2hVuBhGwqCR04QA9x-3" vertex="1">
          <mxGeometry x="55" y="100" width="220" height="90" as="geometry" />
        </mxCell>
        <mxCell id="R0a2hVuBhGwqCR04QA9x-55" value="" style="sketch=0;outlineConnect=0;fontColor=#232F3E;gradientColor=none;fillColor=#ED7100;strokeColor=none;dashed=0;verticalLabelPosition=bottom;verticalAlign=top;align=center;html=1;fontSize=12;fontStyle=0;aspect=fixed;pointerEvents=1;shape=mxgraph.aws4.container_1;" parent="R0a2hVuBhGwqCR04QA9x-3" vertex="1">
          <mxGeometry x="193" y="342" width="48" height="31" as="geometry" />
        </mxCell>
        <mxCell id="R0a2hVuBhGwqCR04QA9x-54" value="" style="sketch=0;outlineConnect=0;fontColor=#232F3E;gradientColor=none;fillColor=#ED7100;strokeColor=none;dashed=0;verticalLabelPosition=bottom;verticalAlign=top;align=center;html=1;fontSize=12;fontStyle=0;aspect=fixed;pointerEvents=1;shape=mxgraph.aws4.container_1;" parent="R0a2hVuBhGwqCR04QA9x-3" vertex="1">
          <mxGeometry x="87" y="341" width="48" height="31" as="geometry" />
        </mxCell>
        <mxCell id="R0a2hVuBhGwqCR04QA9x-56" value="" style="sketch=0;outlineConnect=0;fontColor=#232F3E;gradientColor=none;fillColor=#ED7100;strokeColor=none;dashed=0;verticalLabelPosition=bottom;verticalAlign=top;align=center;html=1;fontSize=12;fontStyle=0;aspect=fixed;pointerEvents=1;shape=mxgraph.aws4.container_1;" parent="R0a2hVuBhGwqCR04QA9x-3" vertex="1">
          <mxGeometry x="453" y="280" width="48" height="31" as="geometry" />
        </mxCell>
        <mxCell id="R0a2hVuBhGwqCR04QA9x-57" value="" style="sketch=0;outlineConnect=0;fontColor=#232F3E;gradientColor=none;fillColor=#ED7100;strokeColor=none;dashed=0;verticalLabelPosition=bottom;verticalAlign=top;align=center;html=1;fontSize=12;fontStyle=0;aspect=fixed;pointerEvents=1;shape=mxgraph.aws4.container_1;" parent="R0a2hVuBhGwqCR04QA9x-3" vertex="1">
          <mxGeometry x="453" y="340" width="48" height="31" as="geometry" />
        </mxCell>
        <mxCell id="R0a2hVuBhGwqCR04QA9x-38" value="&lt;font style=&quot;font-size: 10px;&quot;&gt;NAT GW&lt;/font&gt;" style="text;html=1;align=center;verticalAlign=middle;whiteSpace=wrap;rounded=0;fontColor=light-dark(#8C4FFF,#B17DFF);" parent="R0a2hVuBhGwqCR04QA9x-3" vertex="1">
          <mxGeometry x="170" y="96" width="60" height="60" as="geometry" />
        </mxCell>
        <mxCell id="R0a2hVuBhGwqCR04QA9x-22" value="VPC" style="points=[[0,0],[0.25,0],[0.5,0],[0.75,0],[1,0],[1,0.25],[1,0.5],[1,0.75],[1,1],[0.75,1],[0.5,1],[0.25,1],[0,1],[0,0.75],[0,0.5],[0,0.25]];outlineConnect=0;gradientColor=none;html=1;whiteSpace=wrap;fontSize=12;fontStyle=0;container=1;pointerEvents=0;collapsible=0;recursiveResize=0;shape=mxgraph.aws4.group;grIcon=mxgraph.aws4.group_vpc2;strokeColor=#8C4FFF;fillColor=none;verticalAlign=top;align=left;spacingLeft=30;fontColor=#AAB7B8;dashed=0;movable=1;resizable=1;rotatable=1;deletable=1;editable=1;locked=0;connectable=1;" parent="1" vertex="1">
          <mxGeometry x="975" y="500" width="595" height="390" as="geometry" />
        </mxCell>
        <mxCell id="R0a2hVuBhGwqCR04QA9x-23" value="" style="outlineConnect=0;fontColor=#232F3E;gradientColor=none;fillColor=#8C4FFF;strokeColor=none;dashed=0;verticalLabelPosition=bottom;verticalAlign=top;align=center;html=1;fontSize=12;fontStyle=0;aspect=fixed;pointerEvents=1;shape=mxgraph.aws4.internet_gateway;fillStyle=auto;shadow=0;" parent="R0a2hVuBhGwqCR04QA9x-22" vertex="1">
          <mxGeometry x="275" y="-30" width="40" height="40" as="geometry" />
        </mxCell>
        <mxCell id="R0a2hVuBhGwqCR04QA9x-43" value="" style="edgeStyle=orthogonalEdgeStyle;html=1;endArrow=block;elbow=vertical;startArrow=block;startFill=1;endFill=1;strokeColor=#545B64;rounded=0;" parent="R0a2hVuBhGwqCR04QA9x-22" source="R0a2hVuBhGwqCR04QA9x-31" edge="1">
          <mxGeometry width="100" relative="1" as="geometry">
            <mxPoint x="195" y="76" as="sourcePoint" />
            <mxPoint x="296" y="10" as="targetPoint" />
            <Array as="points">
              <mxPoint x="296" y="125" />
            </Array>
          </mxGeometry>
        </mxCell>
        <mxCell id="R0a2hVuBhGwqCR04QA9x-51" value="&lt;font style=&quot;font-size: 9px;&quot;&gt;EC2 instance&lt;/font&gt;" style="points=[[0,0],[0.25,0],[0.5,0],[0.75,0],[1,0],[1,0.25],[1,0.5],[1,0.75],[1,1],[0.75,1],[0.5,1],[0.25,1],[0,1],[0,0.75],[0,0.5],[0,0.25]];outlineConnect=0;gradientColor=none;html=1;whiteSpace=wrap;fontSize=12;fontStyle=0;container=1;pointerEvents=0;collapsible=0;recursiveResize=0;shape=mxgraph.aws4.group;grIcon=mxgraph.aws4.group_ec2_instance_contents;strokeColor=#D86613;fillColor=none;verticalAlign=top;align=left;spacingLeft=30;fontColor=#D86613;dashed=0;" parent="R0a2hVuBhGwqCR04QA9x-22" vertex="1">
          <mxGeometry x="145" y="217" width="95" height="145" as="geometry" />
        </mxCell>
        <mxCell id="R0a2hVuBhGwqCR04QA9x-49" value="&lt;font style=&quot;font-size: 9px;&quot;&gt;EC2 instance&lt;/font&gt;" style="points=[[0,0],[0.25,0],[0.5,0],[0.75,0],[1,0],[1,0.25],[1,0.5],[1,0.75],[1,1],[0.75,1],[0.5,1],[0.25,1],[0,1],[0,0.75],[0,0.5],[0,0.25]];outlineConnect=0;gradientColor=none;html=1;whiteSpace=wrap;fontSize=12;fontStyle=0;container=1;pointerEvents=0;collapsible=0;recursiveResize=0;shape=mxgraph.aws4.group;grIcon=mxgraph.aws4.group_ec2_instance_contents;strokeColor=#D86613;fillColor=none;verticalAlign=top;align=left;spacingLeft=30;fontColor=#D86613;dashed=0;" parent="R0a2hVuBhGwqCR04QA9x-22" vertex="1">
          <mxGeometry x="38" y="217" width="95" height="145" as="geometry" />
        </mxCell>
        <mxCell id="R0a2hVuBhGwqCR04QA9x-50" value="" style="sketch=0;outlineConnect=0;fontColor=#232F3E;gradientColor=none;fillColor=#ED7100;strokeColor=none;dashed=0;verticalLabelPosition=bottom;verticalAlign=top;align=center;html=1;fontSize=12;fontStyle=0;aspect=fixed;pointerEvents=1;shape=mxgraph.aws4.container_1;" parent="R0a2hVuBhGwqCR04QA9x-49" vertex="1">
          <mxGeometry x="24" y="35" width="48" height="31" as="geometry" />
        </mxCell>
        <mxCell id="R0a2hVuBhGwqCR04QA9x-53" value="&lt;font style=&quot;font-size: 9px;&quot;&gt;EC2 instance&lt;/font&gt;" style="points=[[0,0],[0.25,0],[0.5,0],[0.75,0],[1,0],[1,0.25],[1,0.5],[1,0.75],[1,1],[0.75,1],[0.5,1],[0.25,1],[0,1],[0,0.75],[0,0.5],[0,0.25]];outlineConnect=0;gradientColor=none;html=1;whiteSpace=wrap;fontSize=12;fontStyle=0;container=1;pointerEvents=0;collapsible=0;recursiveResize=0;shape=mxgraph.aws4.group;grIcon=mxgraph.aws4.group_ec2_instance_contents;strokeColor=#D86613;fillColor=none;verticalAlign=top;align=left;spacingLeft=30;fontColor=#D86613;dashed=0;" parent="R0a2hVuBhGwqCR04QA9x-22" vertex="1">
          <mxGeometry x="405" y="217" width="95" height="145" as="geometry" />
        </mxCell>
        <mxCell id="R0a2hVuBhGwqCR04QA9x-31" value="" style="sketch=0;outlineConnect=0;fontColor=#232F3E;gradientColor=none;fillColor=#8C4FFF;strokeColor=none;dashed=0;verticalLabelPosition=bottom;verticalAlign=top;align=center;html=1;fontSize=12;fontStyle=0;aspect=fixed;pointerEvents=1;shape=mxgraph.aws4.nat_gateway;" parent="1" vertex="1">
          <mxGeometry x="1131" y="606" width="38" height="38" as="geometry" />
        </mxCell>
        <mxCell id="R0a2hVuBhGwqCR04QA9x-32" value="" style="sketch=0;outlineConnect=0;fontColor=#232F3E;gradientColor=none;fillColor=#8C4FFF;strokeColor=none;dashed=0;verticalLabelPosition=bottom;verticalAlign=top;align=center;html=1;fontSize=12;fontStyle=0;aspect=fixed;pointerEvents=1;shape=mxgraph.aws4.nat_gateway;" parent="1" vertex="1">
          <mxGeometry x="1372" y="606" width="38" height="38" as="geometry" />
        </mxCell>
        <mxCell id="R0a2hVuBhGwqCR04QA9x-35" value="" style="sketch=0;points=[[0,0,0],[0.25,0,0],[0.5,0,0],[0.75,0,0],[1,0,0],[0,1,0],[0.25,1,0],[0.5,1,0],[0.75,1,0],[1,1,0],[0,0.25,0],[0,0.5,0],[0,0.75,0],[1,0.25,0],[1,0.5,0],[1,0.75,0]];outlineConnect=0;fontColor=#232F3E;fillColor=#ED7100;strokeColor=#ffffff;dashed=0;verticalLabelPosition=bottom;verticalAlign=top;align=center;html=1;fontSize=12;fontStyle=0;aspect=fixed;shape=mxgraph.aws4.resourceIcon;resIcon=mxgraph.aws4.ecr;" parent="1" vertex="1">
          <mxGeometry x="1250" y="371" width="40" height="40" as="geometry" />
        </mxCell>
        <mxCell id="R0a2hVuBhGwqCR04QA9x-36" value="" style="edgeStyle=orthogonalEdgeStyle;html=1;endArrow=block;elbow=vertical;startArrow=block;startFill=1;endFill=1;strokeColor=#545B64;rounded=0;exitX=0.5;exitY=1;exitDx=0;exitDy=0;exitPerimeter=0;" parent="1" source="R0a2hVuBhGwqCR04QA9x-35" target="R0a2hVuBhGwqCR04QA9x-23" edge="1">
          <mxGeometry width="100" relative="1" as="geometry">
            <mxPoint x="1280" y="420" as="sourcePoint" />
            <mxPoint x="1380" y="420" as="targetPoint" />
          </mxGeometry>
        </mxCell>
        <mxCell id="R0a2hVuBhGwqCR04QA9x-37" value="&lt;font style=&quot;font-size: 10px;&quot;&gt;ECR&lt;/font&gt;" style="text;html=1;align=center;verticalAlign=middle;whiteSpace=wrap;rounded=0;fontColor=light-dark(#ED7100,#D86D0C);" parent="1" vertex="1">
          <mxGeometry x="1240" y="331" width="60" height="60" as="geometry" />
        </mxCell>
        <mxCell id="R0a2hVuBhGwqCR04QA9x-39" value="&lt;font style=&quot;font-size: 10px;&quot;&gt;NAT GW&lt;/font&gt;" style="text;html=1;align=center;verticalAlign=middle;whiteSpace=wrap;rounded=0;fontColor=light-dark(#8C4FFF,#B17DFF);" parent="1" vertex="1">
          <mxGeometry x="1361" y="622" width="60" height="60" as="geometry" />
        </mxCell>
        <mxCell id="R0a2hVuBhGwqCR04QA9x-40" value="" style="edgeStyle=orthogonalEdgeStyle;html=1;endArrow=block;elbow=vertical;startArrow=block;startFill=1;endFill=1;strokeColor=#545B64;rounded=0;entryX=0.5;entryY=0;entryDx=0;entryDy=0;" parent="1" source="R0a2hVuBhGwqCR04QA9x-31" target="R0a2hVuBhGwqCR04QA9x-49" edge="1">
          <mxGeometry width="100" relative="1" as="geometry">
            <mxPoint x="1150" y="600" as="sourcePoint" />
            <mxPoint x="1062.5" y="685" as="targetPoint" />
          </mxGeometry>
        </mxCell>
        <mxCell id="R0a2hVuBhGwqCR04QA9x-41" value="" style="edgeStyle=orthogonalEdgeStyle;html=1;endArrow=block;elbow=vertical;startArrow=block;startFill=1;endFill=1;strokeColor=#545B64;rounded=0;" parent="1" source="R0a2hVuBhGwqCR04QA9x-31" target="R0a2hVuBhGwqCR04QA9x-51" edge="1">
          <mxGeometry width="100" relative="1" as="geometry">
            <mxPoint x="1128" y="600" as="sourcePoint" />
            <mxPoint x="1150" y="685" as="targetPoint" />
            <Array as="points">
              <mxPoint x="1150" y="660" />
              <mxPoint x="1150" y="660" />
            </Array>
          </mxGeometry>
        </mxCell>
        <mxCell id="R0a2hVuBhGwqCR04QA9x-42" value="" style="edgeStyle=orthogonalEdgeStyle;html=1;endArrow=block;elbow=vertical;startArrow=block;startFill=1;endFill=1;strokeColor=#545B64;rounded=0;" parent="1" source="R0a2hVuBhGwqCR04QA9x-32" target="R0a2hVuBhGwqCR04QA9x-53" edge="1">
          <mxGeometry width="100" relative="1" as="geometry">
            <mxPoint x="1160" y="620" as="sourcePoint" />
            <mxPoint x="1440" y="685" as="targetPoint" />
            <Array as="points">
              <mxPoint x="1440" y="625" />
            </Array>
          </mxGeometry>
        </mxCell>
        <mxCell id="R0a2hVuBhGwqCR04QA9x-44" value="" style="edgeStyle=orthogonalEdgeStyle;html=1;endArrow=block;elbow=vertical;startArrow=block;startFill=1;endFill=1;strokeColor=#545B64;rounded=0;" parent="1" source="R0a2hVuBhGwqCR04QA9x-32" target="R0a2hVuBhGwqCR04QA9x-23" edge="1">
          <mxGeometry width="100" relative="1" as="geometry">
            <mxPoint x="1373" y="576" as="sourcePoint" />
            <mxPoint x="1271" y="510" as="targetPoint" />
            <Array as="points">
              <mxPoint x="1271" y="625" />
            </Array>
          </mxGeometry>
        </mxCell>
        <mxCell id="SEQuVxZmRuoPy-ToHg0O-1" value="AWS Account" style="points=[[0,0],[0.25,0],[0.5,0],[0.75,0],[1,0],[1,0.25],[1,0.5],[1,0.75],[1,1],[0.75,1],[0.5,1],[0.25,1],[0,1],[0,0.75],[0,0.5],[0,0.25]];outlineConnect=0;gradientColor=none;html=1;whiteSpace=wrap;fontSize=12;fontStyle=0;container=1;pointerEvents=0;collapsible=0;recursiveResize=0;shape=mxgraph.aws4.group;grIcon=mxgraph.aws4.group_account;strokeColor=#CD2264;fillColor=none;verticalAlign=top;align=left;spacingLeft=30;fontColor=#CD2264;dashed=0;" parent="1" vertex="1">
          <mxGeometry x="90" y="440" width="640" height="380" as="geometry" />
        </mxCell>
        <mxCell id="SEQuVxZmRuoPy-ToHg0O-2" value="Region" style="points=[[0,0],[0.25,0],[0.5,0],[0.75,0],[1,0],[1,0.25],[1,0.5],[1,0.75],[1,1],[0.75,1],[0.5,1],[0.25,1],[0,1],[0,0.75],[0,0.5],[0,0.25]];outlineConnect=0;gradientColor=none;html=1;whiteSpace=wrap;fontSize=12;fontStyle=0;container=1;pointerEvents=0;collapsible=0;recursiveResize=0;shape=mxgraph.aws4.group;grIcon=mxgraph.aws4.group_region;strokeColor=#00A4A6;fillColor=none;verticalAlign=top;align=left;spacingLeft=30;fontColor=#147EBA;dashed=1;" parent="SEQuVxZmRuoPy-ToHg0O-1" vertex="1">
          <mxGeometry x="20" y="30" width="620" height="350" as="geometry" />
        </mxCell>
        <mxCell id="SEQuVxZmRuoPy-ToHg0O-59" value="&lt;font style=&quot;font-size: 10px;&quot;&gt;Internet GW&lt;/font&gt;" style="text;html=1;align=center;verticalAlign=middle;whiteSpace=wrap;rounded=0;fontColor=light-dark(#8C4FFF,#B17DFF);" parent="SEQuVxZmRuoPy-ToHg0O-2" vertex="1">
          <mxGeometry x="342" y="-13" width="60" height="60" as="geometry" />
        </mxCell>
        <mxCell id="SEQuVxZmRuoPy-ToHg0O-18" value="VPC" parent="0" />
        <mxCell id="SEQuVxZmRuoPy-ToHg0O-19" value="VPC" style="points=[[0,0],[0.25,0],[0.5,0],[0.75,0],[1,0],[1,0.25],[1,0.5],[1,0.75],[1,1],[0.75,1],[0.5,1],[0.25,1],[0,1],[0,0.75],[0,0.5],[0,0.25]];outlineConnect=0;gradientColor=none;html=1;whiteSpace=wrap;fontSize=12;fontStyle=0;container=1;pointerEvents=0;collapsible=0;recursiveResize=0;shape=mxgraph.aws4.group;grIcon=mxgraph.aws4.group_vpc2;strokeColor=#8C4FFF;fillColor=none;verticalAlign=top;align=left;spacingLeft=30;fontColor=#AAB7B8;dashed=0;movable=1;resizable=1;rotatable=1;deletable=1;editable=1;locked=0;connectable=1;" parent="SEQuVxZmRuoPy-ToHg0O-18" vertex="1">
          <mxGeometry x="135" y="500" width="595" height="320" as="geometry" />
        </mxCell>
        <mxCell id="SEQuVxZmRuoPy-ToHg0O-5" value="Availability Zone" style="fillColor=none;strokeColor=#147EBA;dashed=1;verticalAlign=top;fontStyle=0;fontColor=#147EBA;whiteSpace=wrap;html=1;" parent="SEQuVxZmRuoPy-ToHg0O-19" vertex="1">
          <mxGeometry x="30.5" y="30" width="220" height="290" as="geometry" />
        </mxCell>
        <mxCell id="SEQuVxZmRuoPy-ToHg0O-56" value="" style="edgeStyle=orthogonalEdgeStyle;html=1;endArrow=block;elbow=vertical;startArrow=block;startFill=1;endFill=1;strokeColor=#545B64;rounded=0;" parent="SEQuVxZmRuoPy-ToHg0O-19" source="SEQuVxZmRuoPy-ToHg0O-54" target="SEQuVxZmRuoPy-ToHg0O-44" edge="1">
          <mxGeometry width="100" relative="1" as="geometry">
            <mxPoint x="235" y="40" as="sourcePoint" />
            <mxPoint x="335" y="40" as="targetPoint" />
          </mxGeometry>
        </mxCell>
        <mxCell id="SEQuVxZmRuoPy-ToHg0O-54" value="" style="outlineConnect=0;fontColor=#232F3E;gradientColor=none;fillColor=#8C4FFF;strokeColor=none;dashed=0;verticalLabelPosition=bottom;verticalAlign=top;align=center;html=1;fontSize=12;fontStyle=0;aspect=fixed;pointerEvents=1;shape=mxgraph.aws4.internet_gateway;fillStyle=auto;shadow=0;" parent="SEQuVxZmRuoPy-ToHg0O-19" vertex="1">
          <mxGeometry x="275" y="-30" width="40" height="40" as="geometry" />
        </mxCell>
        <mxCell id="SEQuVxZmRuoPy-ToHg0O-11" value="Availability Zone" style="fillColor=none;strokeColor=#147EBA;dashed=1;verticalAlign=top;fontStyle=0;fontColor=#147EBA;whiteSpace=wrap;html=1;" parent="SEQuVxZmRuoPy-ToHg0O-19" vertex="1">
          <mxGeometry x="340.5" y="30" width="220" height="290" as="geometry" />
        </mxCell>
        <mxCell id="SEQuVxZmRuoPy-ToHg0O-20" value="Private subnet" style="points=[[0,0],[0.25,0],[0.5,0],[0.75,0],[1,0],[1,0.25],[1,0.5],[1,0.75],[1,1],[0.75,1],[0.5,1],[0.25,1],[0,1],[0,0.75],[0,0.5],[0,0.25]];outlineConnect=0;gradientColor=none;html=1;whiteSpace=wrap;fontSize=12;fontStyle=0;container=1;pointerEvents=0;collapsible=0;recursiveResize=0;shape=mxgraph.aws4.group;grIcon=mxgraph.aws4.group_security_group;grStroke=0;strokeColor=#00A4A6;fillColor=#E6F6F7;verticalAlign=top;align=left;spacingLeft=30;fontColor=#147EBA;dashed=0;" parent="SEQuVxZmRuoPy-ToHg0O-19" vertex="1">
          <mxGeometry x="30.5" y="70" width="220" height="250" as="geometry" />
        </mxCell>
        <mxCell id="SEQuVxZmRuoPy-ToHg0O-21" value="Private subnet" style="points=[[0,0],[0.25,0],[0.5,0],[0.75,0],[1,0],[1,0.25],[1,0.5],[1,0.75],[1,1],[0.75,1],[0.5,1],[0.25,1],[0,1],[0,0.75],[0,0.5],[0,0.25]];outlineConnect=0;gradientColor=none;html=1;whiteSpace=wrap;fontSize=12;fontStyle=0;container=1;pointerEvents=0;collapsible=0;recursiveResize=0;shape=mxgraph.aws4.group;grIcon=mxgraph.aws4.group_security_group;grStroke=0;strokeColor=#00A4A6;fillColor=#E6F6F7;verticalAlign=top;align=left;spacingLeft=30;fontColor=#147EBA;dashed=0;" parent="SEQuVxZmRuoPy-ToHg0O-19" vertex="1">
          <mxGeometry x="340.5" y="70" width="220" height="250" as="geometry" />
        </mxCell>
        <mxCell id="SEQuVxZmRuoPy-ToHg0O-24" value="ECS Cluster" style="points=[[0,0],[0.25,0],[0.5,0],[0.75,0],[1,0],[1,0.25],[1,0.5],[1,0.75],[1,1],[0.75,1],[0.5,1],[0.25,1],[0,1],[0,0.75],[0,0.5],[0,0.25]];outlineConnect=0;gradientColor=none;html=1;whiteSpace=wrap;fontSize=12;fontStyle=0;container=1;pointerEvents=0;collapsible=0;recursiveResize=0;shape=mxgraph.aws4.group;grIcon=mxgraph.aws4.group_elastic_beanstalk;strokeColor=#D86613;fillColor=none;verticalAlign=top;align=left;spacingLeft=30;fontColor=#D86613;dashed=0;" parent="SEQuVxZmRuoPy-ToHg0O-19" vertex="1">
          <mxGeometry x="15.5" y="100" width="560" height="210" as="geometry" />
        </mxCell>
        <mxCell id="SEQuVxZmRuoPy-ToHg0O-26" value="" style="sketch=0;points=[[0,0,0],[0.25,0,0],[0.5,0,0],[0.75,0,0],[1,0,0],[0,1,0],[0.25,1,0],[0.5,1,0],[0.75,1,0],[1,1,0],[0,0.25,0],[0,0.5,0],[0,0.75,0],[1,0.25,0],[1,0.5,0],[1,0.75,0]];outlineConnect=0;fontColor=#232F3E;fillColor=#ED7100;strokeColor=#ffffff;dashed=0;verticalLabelPosition=bottom;verticalAlign=top;align=center;html=1;fontSize=12;fontStyle=0;aspect=fixed;shape=mxgraph.aws4.resourceIcon;resIcon=mxgraph.aws4.ecs;" parent="SEQuVxZmRuoPy-ToHg0O-24" vertex="1">
          <mxGeometry width="25" height="25" as="geometry" />
        </mxCell>
        <mxCell id="SEQuVxZmRuoPy-ToHg0O-27" value="&lt;font style=&quot;font-size: 10px;&quot;&gt;ASG&lt;/font&gt;" style="points=[[0,0],[0.25,0],[0.5,0],[0.75,0],[1,0],[1,0.25],[1,0.5],[1,0.75],[1,1],[0.75,1],[0.5,1],[0.25,1],[0,1],[0,0.75],[0,0.5],[0,0.25]];outlineConnect=0;gradientColor=none;html=1;whiteSpace=wrap;fontSize=12;fontStyle=0;container=1;pointerEvents=0;collapsible=0;recursiveResize=0;shape=mxgraph.aws4.groupCenter;grIcon=mxgraph.aws4.group_auto_scaling_group;grStroke=1;strokeColor=#D86613;fillColor=none;verticalAlign=top;align=center;fontColor=#D86613;dashed=1;spacingTop=25;" parent="SEQuVxZmRuoPy-ToHg0O-24" vertex="1">
          <mxGeometry x="10" y="30" width="540" height="170" as="geometry" />
        </mxCell>
        <mxCell id="SEQuVxZmRuoPy-ToHg0O-30" value="&lt;font style=&quot;font-size: 9px;&quot;&gt;EC2 instance&lt;/font&gt;" style="points=[[0,0],[0.25,0],[0.5,0],[0.75,0],[1,0],[1,0.25],[1,0.5],[1,0.75],[1,1],[0.75,1],[0.5,1],[0.25,1],[0,1],[0,0.75],[0,0.5],[0,0.25]];outlineConnect=0;gradientColor=none;html=1;whiteSpace=wrap;fontSize=12;fontStyle=0;container=1;pointerEvents=0;collapsible=0;recursiveResize=0;shape=mxgraph.aws4.group;grIcon=mxgraph.aws4.group_ec2_instance_contents;strokeColor=#D86613;fillColor=none;verticalAlign=top;align=left;spacingLeft=30;fontColor=#D86613;dashed=0;" parent="SEQuVxZmRuoPy-ToHg0O-27" vertex="1">
          <mxGeometry x="15" y="15" width="95" height="145" as="geometry" />
        </mxCell>
        <mxCell id="SEQuVxZmRuoPy-ToHg0O-36" value="" style="sketch=0;outlineConnect=0;fontColor=#232F3E;gradientColor=none;fillColor=#ED7100;strokeColor=none;dashed=0;verticalLabelPosition=bottom;verticalAlign=top;align=center;html=1;fontSize=12;fontStyle=0;aspect=fixed;pointerEvents=1;shape=mxgraph.aws4.container_1;" parent="SEQuVxZmRuoPy-ToHg0O-30" vertex="1">
          <mxGeometry x="24" y="35" width="48" height="31" as="geometry" />
        </mxCell>
        <mxCell id="SEQuVxZmRuoPy-ToHg0O-31" value="&lt;font style=&quot;font-size: 9px;&quot;&gt;EC2 instance&lt;/font&gt;" style="points=[[0,0],[0.25,0],[0.5,0],[0.75,0],[1,0],[1,0.25],[1,0.5],[1,0.75],[1,1],[0.75,1],[0.5,1],[0.25,1],[0,1],[0,0.75],[0,0.5],[0,0.25]];outlineConnect=0;gradientColor=none;html=1;whiteSpace=wrap;fontSize=12;fontStyle=0;container=1;pointerEvents=0;collapsible=0;recursiveResize=0;shape=mxgraph.aws4.group;grIcon=mxgraph.aws4.group_ec2_instance_contents;strokeColor=#D86613;fillColor=none;verticalAlign=top;align=left;spacingLeft=30;fontColor=#D86613;dashed=0;" parent="SEQuVxZmRuoPy-ToHg0O-27" vertex="1">
          <mxGeometry x="120" y="15" width="95" height="145" as="geometry" />
        </mxCell>
        <mxCell id="SEQuVxZmRuoPy-ToHg0O-33" value="&lt;font style=&quot;font-size: 9px;&quot;&gt;EC2 instance&lt;/font&gt;" style="points=[[0,0],[0.25,0],[0.5,0],[0.75,0],[1,0],[1,0.25],[1,0.5],[1,0.75],[1,1],[0.75,1],[0.5,1],[0.25,1],[0,1],[0,0.75],[0,0.5],[0,0.25]];outlineConnect=0;gradientColor=none;html=1;whiteSpace=wrap;fontSize=12;fontStyle=0;container=1;pointerEvents=0;collapsible=0;recursiveResize=0;shape=mxgraph.aws4.group;grIcon=mxgraph.aws4.group_ec2_instance_contents;strokeColor=#D86613;fillColor=none;verticalAlign=top;align=left;spacingLeft=30;fontColor=#D86613;dashed=0;" parent="SEQuVxZmRuoPy-ToHg0O-27" vertex="1">
          <mxGeometry x="380" y="15" width="95" height="145" as="geometry" />
        </mxCell>
        <mxCell id="SEQuVxZmRuoPy-ToHg0O-41" value="" style="sketch=0;outlineConnect=0;fontColor=#232F3E;gradientColor=none;fillColor=#ED7100;strokeColor=none;dashed=0;verticalLabelPosition=bottom;verticalAlign=top;align=center;html=1;fontSize=12;fontStyle=0;aspect=fixed;pointerEvents=1;shape=mxgraph.aws4.container_1;" parent="SEQuVxZmRuoPy-ToHg0O-19" vertex="1">
          <mxGeometry x="429.5" y="180" width="48" height="31" as="geometry" />
        </mxCell>
        <mxCell id="SEQuVxZmRuoPy-ToHg0O-42" value="" style="sketch=0;outlineConnect=0;fontColor=#232F3E;gradientColor=none;fillColor=#ED7100;strokeColor=none;dashed=0;verticalLabelPosition=bottom;verticalAlign=top;align=center;html=1;fontSize=12;fontStyle=0;aspect=fixed;pointerEvents=1;shape=mxgraph.aws4.container_1;" parent="SEQuVxZmRuoPy-ToHg0O-19" vertex="1">
          <mxGeometry x="429.5" y="240" width="48" height="31" as="geometry" />
        </mxCell>
        <mxCell id="SEQuVxZmRuoPy-ToHg0O-38" value="" style="sketch=0;outlineConnect=0;fontColor=#232F3E;gradientColor=none;fillColor=#ED7100;strokeColor=none;dashed=0;verticalLabelPosition=bottom;verticalAlign=top;align=center;html=1;fontSize=12;fontStyle=0;aspect=fixed;pointerEvents=1;shape=mxgraph.aws4.container_1;" parent="SEQuVxZmRuoPy-ToHg0O-19" vertex="1">
          <mxGeometry x="64.5" y="240" width="48" height="31" as="geometry" />
        </mxCell>
        <mxCell id="SEQuVxZmRuoPy-ToHg0O-40" value="" style="sketch=0;outlineConnect=0;fontColor=#232F3E;gradientColor=none;fillColor=#ED7100;strokeColor=none;dashed=0;verticalLabelPosition=bottom;verticalAlign=top;align=center;html=1;fontSize=12;fontStyle=0;aspect=fixed;pointerEvents=1;shape=mxgraph.aws4.container_1;" parent="SEQuVxZmRuoPy-ToHg0O-19" vertex="1">
          <mxGeometry x="169.5" y="240" width="48" height="31" as="geometry" />
        </mxCell>
        <mxCell id="SEQuVxZmRuoPy-ToHg0O-25" value="ECS Cluster" parent="0" />
        <mxCell id="SEQuVxZmRuoPy-ToHg0O-45" value="Traffic Distribution" parent="0" />
        <mxCell id="SEQuVxZmRuoPy-ToHg0O-58" value="" style="edgeStyle=orthogonalEdgeStyle;html=1;endArrow=block;elbow=vertical;startArrow=none;endFill=1;strokeColor=#545B64;rounded=0;" parent="SEQuVxZmRuoPy-ToHg0O-45" source="SEQuVxZmRuoPy-ToHg0O-44" target="SEQuVxZmRuoPy-ToHg0O-41" edge="1">
          <mxGeometry width="100" relative="1" as="geometry">
            <mxPoint x="465" y="640" as="sourcePoint" />
            <mxPoint x="440" y="749" as="targetPoint" />
            <Array as="points">
              <mxPoint x="460" y="560" />
              <mxPoint x="460" y="690" />
            </Array>
          </mxGeometry>
        </mxCell>
        <mxCell id="SEQuVxZmRuoPy-ToHg0O-76" value="" style="ellipse;shape=cloud;whiteSpace=wrap;html=1;" parent="SEQuVxZmRuoPy-ToHg0O-45" vertex="1">
          <mxGeometry x="370.5" y="340" width="120" height="70" as="geometry" />
        </mxCell>
        <mxCell id="SEQuVxZmRuoPy-ToHg0O-77" value="" style="edgeStyle=orthogonalEdgeStyle;html=1;endArrow=block;elbow=vertical;startArrow=block;startFill=1;endFill=1;strokeColor=#545B64;rounded=0;" parent="SEQuVxZmRuoPy-ToHg0O-45" source="SEQuVxZmRuoPy-ToHg0O-76" target="SEQuVxZmRuoPy-ToHg0O-54" edge="1">
          <mxGeometry width="100" relative="1" as="geometry">
            <mxPoint x="270" y="300" as="sourcePoint" />
            <mxPoint x="370" y="300" as="targetPoint" />
          </mxGeometry>
        </mxCell>
        <mxCell id="SEQuVxZmRuoPy-ToHg0O-57" value="" style="edgeStyle=orthogonalEdgeStyle;html=1;endArrow=block;elbow=vertical;startArrow=none;endFill=1;strokeColor=#545B64;rounded=0;entryX=0.384;entryY=0.552;entryDx=0;entryDy=0;entryPerimeter=0;" parent="SEQuVxZmRuoPy-ToHg0O-45" source="SEQuVxZmRuoPy-ToHg0O-44" target="SEQuVxZmRuoPy-ToHg0O-5" edge="1">
          <mxGeometry width="100" relative="1" as="geometry">
            <mxPoint x="410" y="610" as="sourcePoint" />
            <mxPoint x="510" y="610" as="targetPoint" />
            <Array as="points">
              <mxPoint x="400" y="560" />
              <mxPoint x="400" y="690" />
            </Array>
          </mxGeometry>
        </mxCell>
        <mxCell id="SEQuVxZmRuoPy-ToHg0O-44" value="" style="sketch=0;outlineConnect=0;fontColor=#232F3E;gradientColor=none;fillColor=#8C4FFF;strokeColor=none;dashed=0;verticalLabelPosition=bottom;verticalAlign=top;align=center;html=1;fontSize=12;fontStyle=0;aspect=fixed;pointerEvents=1;shape=mxgraph.aws4.application_load_balancer;" parent="SEQuVxZmRuoPy-ToHg0O-45" vertex="1">
          <mxGeometry x="410" y="539" width="41" height="41" as="geometry" />
        </mxCell>
        <mxCell id="SEQuVxZmRuoPy-ToHg0O-50" value="ALB" style="text;html=1;align=center;verticalAlign=middle;whiteSpace=wrap;rounded=0;fontColor=light-dark(#8C4FFF,#B17DFF);" parent="SEQuVxZmRuoPy-ToHg0O-45" vertex="1">
          <mxGeometry x="400" y="559" width="60" height="60" as="geometry" />
        </mxCell>
        <mxCell id="R0a2hVuBhGwqCR04QA9x-46" value="" style="edgeStyle=orthogonalEdgeStyle;html=1;endArrow=block;elbow=vertical;startArrow=none;endFill=1;strokeColor=#545B64;rounded=0;" parent="SEQuVxZmRuoPy-ToHg0O-45" source="SEQuVxZmRuoPy-ToHg0O-44" target="SEQuVxZmRuoPy-ToHg0O-38" edge="1">
          <mxGeometry width="100" relative="1" as="geometry">
            <mxPoint x="560" y="680" as="sourcePoint" />
            <mxPoint x="400" y="810" as="targetPoint" />
            <Array as="points">
              <mxPoint x="400" y="560" />
              <mxPoint x="400" y="720" />
              <mxPoint x="224" y="720" />
            </Array>
          </mxGeometry>
        </mxCell>
        <mxCell id="R0a2hVuBhGwqCR04QA9x-47" value="" style="edgeStyle=orthogonalEdgeStyle;html=1;endArrow=block;elbow=vertical;startArrow=none;endFill=1;strokeColor=#545B64;rounded=0;" parent="SEQuVxZmRuoPy-ToHg0O-45" source="SEQuVxZmRuoPy-ToHg0O-44" target="SEQuVxZmRuoPy-ToHg0O-42" edge="1">
          <mxGeometry width="100" relative="1" as="geometry">
            <mxPoint x="576" y="710" as="sourcePoint" />
            <mxPoint x="390" y="890" as="targetPoint" />
            <Array as="points">
              <mxPoint x="460" y="560" />
              <mxPoint x="460" y="756" />
            </Array>
          </mxGeometry>
        </mxCell>
        <mxCell id="R0a2hVuBhGwqCR04QA9x-48" value="" style="edgeStyle=orthogonalEdgeStyle;html=1;endArrow=block;elbow=vertical;startArrow=none;endFill=1;strokeColor=#545B64;rounded=0;" parent="SEQuVxZmRuoPy-ToHg0O-45" source="SEQuVxZmRuoPy-ToHg0O-44" target="SEQuVxZmRuoPy-ToHg0O-40" edge="1">
          <mxGeometry width="100" relative="1" as="geometry">
            <mxPoint x="450" y="700" as="sourcePoint" />
            <mxPoint x="564" y="896" as="targetPoint" />
            <Array as="points">
              <mxPoint x="400" y="560" />
              <mxPoint x="400" y="756" />
            </Array>
          </mxGeometry>
        </mxCell>
      </root>
    </mxGraphModel>
  </diagram>
</mxfile>
